<?xml version="1.0" encoding="UTF-8"?>
<svg width="1200pt" height="1200pt" version="1.1" viewBox="0 0 1200 1200" xmlns="http://www.w3.org/2000/svg">
 <path d="m942.43 859.78v-267.25c0-14.605-8.9492-27.703-22.539-33.004l-279.48-109.07c11.867-14.75 16.426-31.633 14.273-47.363-2.1719-15.855-8.0625-30.816-15.195-44.562 19.438-11.348 40.453-18.809 65.5-16.059 6.4805 0.70703 12.316-3.9805 13.023-10.449 0.70703-6.4844-3.9688-12.316-10.449-13.027-30.512-3.3398-56.219 5.3281-79.906 19.105-3.3984-5.2305-7.0391-10.281-11.098-15.195-7.2148-8.75-18.211-14.156-31.246-16.543-16.461-3.0117-36.379-1.25-53.562 2.3125-4.4492 0.92188-8.9492 1.9961-13.375 3.25-4.4648 1.2617-9.9922 3.1406-14.09 6.043-4.5938 3.2617-7.7461 7.6523-8.7852 13.168-0.46094 2.457-0.44922 4.8281-0.16406 7.1445 0.21094 1.6875 0.60156 3.3398 1.1445 4.9219-26.484 10.559-53.633 24.148-64.141 37.266-2.7734 3.4727-5.2188 7.7969-7.3555 12.684l-157.84 168.35c-2.7734 2.9648-4.9922 6.3516-6.6016 10.012-0.058593 0.14453-0.12891 0.29688-0.1875 0.44922-1.8164 4.3242-2.7852 9-2.7852 13.77v274.05c0 19.566 15.855 35.426 35.422 35.426h614.02c19.566 0 35.422-15.859 35.422-35.426zm-23.613-153.5v62.145c-1.0742 0.20312-2.1484 0.35547-3.1992 0.42578-9.1758 0.60156-17.113-3.3984-25.094-6.9062-11.582-5.0781-23.18-9.5547-36.121-8.1719-18.277 1.9609-32.754 13.191-48.438 21.172-13.391 6.8125-28.219 9.7891-43.215 11.16-15.41 1.3906-29.156 0.96875-43.277-5.1953-20.746-9.0469-44.398-24.551-68.25-24.207-16.613 0.23438-30.879 7.6016-44.906 15.668-10.758 6.1875-21.312 12.953-33.82 13.934-5.1602 0.41406-10.379-1.5938-15.371-4.1094-6.4023-3.2227-12.398-7.5312-17.453-11.16-9.0703-6.5273-16.047-12.645-28.008-13.188-21.125-0.94531-38.852 6.9883-56.125 16.082-14.121 7.4375-27.844 15.812-44.031 17.512-8.7148 0.93359-17.715-0.37891-25.637-3.9805-16.32-7.4375-27.902-17.863-47.172-19.387-19.898-1.5586-40.586 7.9102-57.07 17.676-0.15234 0.10547-0.29297 0.1875-0.44922 0.26953v-79.738h165.31c6.5195 0 11.809-5.2891 11.809-11.809 0-6.5156-5.2891-11.809-11.809-11.809h-165.31v-94.461h636.81c0.54297 1.3555 0.82812 2.8086 0.82812 4.332v90.129h-366.05c-6.5156 0-11.809 5.293-11.809 11.809 0 6.5195 5.293 11.809 11.809 11.809zm-299.71-238.78 248.78 97.086h-571.26l116.73-124.52c-1.0742 8.0156-1.7578 15.586-2.1484 21.949-1.3711 15.375 7.3789 29.816 21.445 35.625 12.375 5.4336 30.262 12.48 47.148 16.285 12.668 2.8555 24.867 3.7891 34.359 1.7109 10.227-2.2305 23.5-9.8477 37.125-20.238 12.988-9.918 26.547-22.27 38.152-33.582 3.6484 5.4922 9.2227 9.5039 18.031 8.7383 4.0156-0.35547 7.9102-1.4414 11.633-3.0586zm-96.781-129.58c-0.32812-0.16406-2.0195-1.0859-2.5039-1.4297 1.5703-0.63672 3.7109-1.4766 4.9844-1.8398 3.8867-1.0977 7.8398-2.0312 11.738-2.8359 14.285-2.9727 30.828-4.7227 44.516-2.2188 7.0742 1.2969 13.367 3.6016 17.285 8.3477 7.0625 8.5625 12.672 17.676 18.008 27.406 6.8477 12.504 12.918 26.227 14.938 40.961 1.4531 10.676-2.5156 22.012-11.359 31.777-1.9375 2.1367-4.1211 4.2383-6.5273 5.8672-0.69922 0.33203-1.3477 0.72266-1.9609 1.1836-1.0977 0.58984-2.2344 1.0625-3.4023 1.3906-0.33203-0.94141-2.1133-8.9023-2.3984-9.8359-0.69531-4.2031-1.2617-8.4766-2.6211-12.422-2.2422-6.5156-6.3633-12.113-11.348-16.812-3.6836-3.4727-8.0625-5.8008-12.785-7.5938-4.2539-1.6172-8.918-2.5625-12.824-4.875-1.0508-0.62891-1.6055-1.7383-2.1133-2.7891-0.83984-1.7695-0.78125-3.7656-0.4375-5.8672 0.92188-5.5625 2.6562-11.574 2.6562-17.016 0.011719-6.1523-1.6875-11.785-5.9727-16.59-3.8984-4.3828-9.0703-7.7109-15.305-9.3398-5.4102-1.4297-11.027-2.2109-16.332-3.4844-2.1719-0.51953-4.2852-1.0859-6.2344-1.9844zm-76.457 65.781c1.418-3.2344 3.0234-6.1133 4.9023-8.4648 3.9648-4.9492 11.168-9.6719 19.73-14.371 7.3555-4.0391 15.68-7.9102 24.242-11.523 0.55469 2.3359 1.4648 4.6172 2.7617 6.7773 6.7773 11.23 21.277 14.715 32.332 7.8281 6.1992-3.8594 9.9883-10.191 10.898-16.98 0.70703 0.39062 1.3203 0.88672 1.8398 1.4648 0.26172 0.29688-0.16406 2.9531-0.32812 3.9102-0.55469 3.375-1.4883 6.8477-2.0312 10.141-1.1797 7.168-0.44922 13.898 2.4453 19.922 2.4648 5.1602 6.1875 9.8242 11.336 12.883 3.707 2.1953 7.8281 3.707 11.984 5.0898 3.375 1.1211 6.9297 1.8516 9.4922 4.2734 2.207 2.0781 4.2266 4.4297 5.2188 7.3086 0.46094 1.3594 0.82812 2.7383 1.1211 4.1562-12.539 12.695-29.105 28.504-44.844 40.516-10.344 7.875-20.074 14.25-27.844 15.938-1.1836 0.26172-2.4336 0.4375-3.7227 0.54688 3.4023-7.0039 3.332-15.566-0.97656-22.707-6.7812-11.23-21.281-14.715-32.332-7.832-7.4258 4.6172-11.406 12.812-11.102 21.055-7.0352-2.5742-13.578-5.2891-18.949-7.6641-0.10547-0.046875-0.21484-0.082031-0.32031-0.12891-4.6406-1.8906-7.4492-6.6836-6.9883-11.738 0.011719-0.10547 0.023437-0.22266 0.023437-0.33984 0.76563-12.445 2.4805-30.195 6.4453-45.746 1.1211-4.4023 2.3867-8.6328 3.8984-12.434 0.28125-0.625 0.54297-1.25 0.76563-1.8789zm472.95 388.57v67.516c0 6.5195-5.293 11.809-11.809 11.809h-614.02c-6.5156 0-11.809-5.2891-11.809-11.809v-46.039c4.2891-2.5508 8.4453-5.2773 12.496-7.6758 12.551-7.4492 28.008-15.645 43.168-14.453 8.7031 0.6875 15.199 4.1328 21.703 7.8281 5.5977 3.1914 11.184 6.6133 17.535 9.5078 11.727 5.3359 25.012 7.3438 37.906 5.9727 19.223-2.0273 35.789-11.273 52.555-20.094 13.629-7.168 27.395-14.137 44.07-13.391 3.1055 0.14062 5.3008 1.4375 7.4609 2.9375 2.5508 1.7734 5.0312 3.8281 7.8047 5.8242 13.023 9.3633 31.398 20.992 48.461 19.648 16.047-1.2656 29.934-9.0703 43.75-17.004 10.531-6.0469 20.98-12.352 33.461-12.531 9.4375-0.14062 18.719 3.2266 27.762 7.2891 10.688 4.8164 21.008 10.719 30.727 14.961 17.91 7.8164 35.281 8.8203 54.836 7.0469 17.996-1.6289 35.73-5.4414 51.801-13.625 13.164-6.6953 24.891-17.086 40.242-18.727 8.7148-0.93359 16.316 2.8906 24.125 6.3164 11.395 4.9922 23.012 9.707 36.145 8.832 0.54297-0.035156 1.0859-0.082032 1.6289-0.14062zm-381.27-369.84c-6.7656-11.23-21.266-14.715-32.332-7.8281-10.898 6.7891-14.395 21.277-7.7109 32.363 6.7773 11.23 21.277 14.715 32.332 7.8281 10.91-6.7891 14.395-21.277 7.7109-32.363zm-43.82 260.23c-6.5195 0-11.809 5.293-11.809 11.809 0 6.5195 5.2891 11.809 11.809 11.809h11.809c6.5156 0 11.809-5.2891 11.809-11.809 0-6.5156-5.293-11.809-11.809-11.809z" fill="#12b0fb" fill-rule="evenodd"/>
</svg>
