<?xml version="1.0" encoding="UTF-8"?>
<svg width="1200pt" height="1200pt" version="1.1" viewBox="0 0 1200 1200" xmlns="http://www.w3.org/2000/svg">
 <path d="m597.75 766.55c58.105-48.961 243.04-237.86 0-495.15-243.04 257.29-58.105 446.19 0 495.15zm-27.539 97.992c-98.066 65.34-342.25 175.11-553.9-160.42-7.9922-12.707-4.3203-29.449 8.207-37.621l-0.035156-0.070312c33.984-22.25 66.637-40.141 97.922-54.18 22.43-10.082 44.102-18.145 65.016-24.336-14.148-49.898-22.176-109.33-21.562-180.22 0.14453-15.012 12.277-27.109 27.254-27.215 57.887-0.50391 108.07 4.8594 151.56 14.723 33.84 7.668 63.758 18.07 90.219 30.602 21.672-65.305 65.844-136.73 143.21-212.91l0.43359-0.43359c10.656-10.477 27.828-10.547 38.52 0 78.371 77.078 122.8 149.29 144.25 215.18 26.711-12.996 56.988-23.867 91.332-31.859 44.062-10.223 95.113-15.84 154.26-15.336 14.977 0.10938 27.109 12.238 27.254 27.254 0.61328 70.883-7.418 130.36-21.562 180.22 20.918 6.2266 42.551 14.258 65.016 24.336 31.285 14.074 63.938 31.934 97.922 54.18l-0.035156 0.070313c12.527 8.1719 16.199 24.914 8.207 37.621-214.96 340.82-463.47 222.23-558.37 157.43v106.27c0 15.227-12.348 27.578-27.578 27.578-15.227 0-27.539-12.348-27.539-27.578v-103.25zm-364.54-224.75c-19.332 5.6172-39.637 13.105-60.875 22.645-21.203 9.5391-43.488 21.238-66.816 35.387 156.71 229.29 328.32 192.13 424.09 143.1-93.566-6.9844-229.68-45.648-296.39-201.13zm215.82-159.34c-25.199-13.031-54.613-23.832-88.922-31.609-32.688-7.418-69.695-12.023-111.49-13.176 8.8906 313.67 217.66 351.51 317.7 351.54-54.793-53.246-139.93-161.79-117.29-306.72zm276.41 360.47c95.762 49.07 267.38 86.184 424.09-143.1-23.328-14.148-45.613-25.848-66.816-35.387-21.277-9.5391-41.543-17.027-60.914-22.645-66.707 155.41-202.79 194.15-296.36 201.13zm-41.184-53.75c98.137 1.0781 313.13-33.086 322.17-351.51-42.84 1.1875-80.641 6.0117-114.01 13.789-35.137 8.1719-65.051 19.547-90.539 33.191 21.457 143.86-63.074 251.54-117.61 304.56z" fill="#12b0fb"/>
</svg>
