<?xml version="1.0" encoding="UTF-8"?>
<svg width="1200pt" height="1200pt" version="1.1" viewBox="0 0 1200 1200" xmlns="http://www.w3.org/2000/svg">
 <path d="m638.97 0c300.98 19.273 541.74 260.04 561.02 561.02h-105.68c-18.887-242.77-212.56-436.44-455.34-455.31zm-77.953 105.7c-242.78 18.871-436.44 212.55-455.33 455.31h-105.68c19.273-300.98 260.02-541.74 561-561.02zm638.97 533.27c-19.273 301-260.02 541.76-561.02 561.03v-105.7c242.78-18.871 436.47-212.55 455.34-455.33zm-638.97 561.03c-301-19.273-541.73-260.04-561-561.03h105.68c18.871 242.78 212.55 436.46 455.33 455.33z" fill="#12b0fb"/>
</svg>
